<svg xmlns="http://www.w3.org/2000/svg" viewBox="0 0 48 48"><path fill="#F2F2F2" d="M48 48H13.6V2c0-1.1.9-2 2-2H46c1.1 0 2 .9 2 2v46z"/><path fill="#CDD6E0" d="M13.6 48H0V14.5c0-1.1.9-2 2-2h11.6V48z"/><path fill="#BDCCDB" d="M11.8 12.5h1.8V48h-1.8z"/><path fill="#54C0EB" d="M17.6 4h6.1v6.1h-6.1zM27.8 4h6.1v6.1h-6.1zM17.6 14.1h6.1v6.1h-6.1zM27.8 14.1h6.1v6.1h-6.1zM37.9 4H44v6.1h-6.1zM37.9 14.1H44v6.1h-6.1zM17.6 24.3h6.1v6.1h-6.1zM27.8 24.3h6.1v6.1h-6.1zM37.9 24.3H44v6.1h-6.1z"/><path fill="#334A5E" d="M24.7 34.4h6.1V48h-6.1z"/><path fill="#40596B" d="M30.8 34.4h6.1V48h-6.1z"/><path fill="#F2F2F2" d="M1.8 15.8h3.5v3.5H1.8zM7.2 15.8h3.5v3.5H7.2zM1.8 24.3h3.5v3.5H1.8zM7.2 24.3h3.5v3.5H7.2zM1.8 32.7h3.5v3.5H1.8zM7.2 32.7h3.5v3.5H7.2zM1.8 41.2h3.5v3.5H1.8zM7.2 41.2h3.5v3.5H7.2z"/></svg>