<svg xmlns="http://www.w3.org/2000/svg" viewBox="0 0 135.467 135.467"><g transform="matrix(1.0197 0 0 1.02624 -11.216 -.025)"><path fill="#171d8f" d="m 68.680707,125.58237 h 66.654143 l -2.87501,-71.296585 c 0,0 -54.519351,-9.482452 -55.464223,-9.670221 -0.944878,-0.187772 -10.771591,8.449707 -11.149539,9.576336 -0.377954,1.126627 -5.480281,24.222493 -5.102334,30.418953 0.377955,6.19645 7.936963,40.971517 7.936963,40.971517 z"/><path fill="#7738c7" d="M 24.073056,54.942986 21.133289,125.58237 H 73.783041 L 68.680707,38.419109 51.294982,16.262098 41.279298,17.388727 Z"/><path fill="#ffc517" d="m 17.531072,54.490122 c 0.955326,3.525766 5.731988,5.424258 8.188548,2.712129 2.456574,-2.712129 19.148569,-36.81099 20.103901,-37.353415 0.955326,-0.542427 20.292989,38.438267 23.56841,38.438267 h 65.282849 c 0,0 2.69903,-0.338989 2.69903,-3.197059 0,-5.017438 -14.54581,-40.018711 -15.7741,-41.103563 C 120.37143,12.901628 41.813223,11.232576 39.356656,12.453034 36.900082,13.67349 16.302782,51.50678 17.531072,54.490122 Z"/><path fill="#171d8f" d="m 62.665505,96.698738 c -4.03273,0.20153 -5.368757,0.856507 -5.726093,2.670281 -0.35733,1.813781 -0.25523,14.207931 -0.25523,14.207931 0,0 5.895631,-0.40306 8.635772,-0.40306 V 96.194912 Z"/><path fill="#fff" d="m 58.519008,96.418198 -0.06648,17.064832 1.662797,-0.21375 -0.26604,-17.563602 z"/><path fill="#fff" d="m 53.04304,101.39871 12.290008,0.32064 -0.03327,1.49629 -12.72234,-0.53439 z"/><path fill="#ffc517" d="m 55.117692,94.065604 c -0.537644,0.0023 -0.927393,0.0071 -1.115514,0.01338 -0.180396,0.006 -0.336968,0.02286 -0.475521,0.04892 -0.0297,4.2e-4 -0.05907,0.0012 -0.08884,0.0012 -0.705457,0 -1.693114,3.42e-4 -1.740143,1.209527 0,0 -0.987489,18.490129 0.423433,19.598549 1.410943,1.10841 13.813549,1.31002 14.377927,-0.25184 0.564378,-1.56187 0.470119,-19.397132 0.42309,-20.001725 -0.04122,-0.529018 -8.040937,-0.633793 -11.804434,-0.61795 z m 6.371721,3.577373 c 1.439064,0.0031 2.496355,0.05694 2.658025,0.21439 0.517343,0.503826 0.141053,14.208153 -0.329255,14.460063 -0.470321,0.25191 -8.686925,-6e-5 -9.251297,-0.0504 -0.451279,-0.0403 -0.07246,-9.80246 0.126288,-14.47612 0.08562,0.0051 0.157353,0.01183 0.249713,0.01643 1.390358,0.06928 3.380581,-0.171094 6.546526,-0.164328 z"/><path fill="#171d8f" d="m 42.857935,95.947237 c -10.890881,0.972396 -6.133501,4.289833 -6.28269,14.111043 -0.149196,9.82121 -0.895142,15.52409 -0.895142,15.52409 h 7.85886 z"/><path fill="#ffc517" d="m 26.19162,125.58237 c 0,0 1.044318,-26.620704 3.282183,-30.218571 2.237852,-3.597869 11.94168,-2.528233 14.925485,-1.458596 2.983805,1.069637 3.167811,31.677167 3.167811,31.677167 h -4.112407 c 0,0 -1.044331,-24.72162 -1.939473,-26.666409 -0.895143,-1.944793 -6.133508,-1.361354 -8.072968,-0.291718 -1.939487,1.069638 -2.237852,26.958127 -2.237852,26.958127 z"/><path fill="#fff" d="m 33.660378,91.87973 c -4.465075,0.624875 -5.408404,3.749262 -5.345513,5.936332 0.06291,2.187068 2.389763,-2.874435 4.653742,-2.936922 2.26398,-0.06249 6.540388,-0.749853 4.653736,-1.874632 -1.886646,-1.124778 -2.012428,-1.187267 -3.961965,-1.124778 z"/><path fill="#7738c7" d="m 97.247975,96.698738 c -4.03273,0.20153 -5.368757,0.856507 -5.726093,2.670281 -0.35733,1.813781 -0.25523,14.207931 -0.25523,14.207931 0,0 5.895631,-0.40306 8.635772,-0.40306 V 96.194912 Z"/><path fill="#fff" d="m 93.101478,96.418198 -0.06648,17.064832 1.662797,-0.21375 -0.26604,-17.563602 z"/><path fill="#fff" d="m 87.62551,101.39871 12.290008,0.32064 -0.03327,1.49629 -12.72234,-0.53439 z"/><path fill="#ffc517" d="m 89.700162,94.065604 c -0.537644,0.0023 -0.927393,0.0071 -1.115514,0.01338 -0.180396,0.006 -0.336968,0.02286 -0.475521,0.04892 -0.0297,4.2e-4 -0.05907,0.0012 -0.08884,0.0012 -0.705457,0 -1.693114,3.42e-4 -1.740143,1.209527 0,0 -0.987489,18.490129 0.423433,19.598549 1.410943,1.10841 13.813553,1.31002 14.377923,-0.25184 0.56438,-1.56187 0.47012,-19.397132 0.42309,-20.001725 -0.0412,-0.529018 -8.040933,-0.633793 -11.80443,-0.61795 z m 6.371721,3.577373 c 1.439064,0.0031 2.496355,0.05694 2.658025,0.21439 0.517343,0.503826 0.141053,14.208153 -0.329255,14.460063 -0.470321,0.25191 -8.686925,-6e-5 -9.251297,-0.0504 -0.451279,-0.0403 -0.07246,-9.80246 0.126288,-14.47612 0.08562,0.0051 0.157353,0.01183 0.249713,0.01643 1.390358,0.06928 3.380581,-0.171094 6.546526,-0.164328 z"/><path fill="#7738c7" d="m 119.73603,96.698738 c -4.03273,0.20153 -5.36876,0.856507 -5.7261,2.670281 -0.35733,1.813781 -0.25523,14.207931 -0.25523,14.207931 0,0 5.89564,-0.40306 8.63578,-0.40306 V 96.194912 Z"/><path fill="#fff" d="m 115.58953,96.418198 -0.0665,17.064832 1.6628,-0.21375 -0.26604,-17.563602 z"/><path fill="#fff" d="m 110.11356,101.39871 12.29001,0.32064 -0.0333,1.49629 -12.72234,-0.53439 z"/><path fill="#ffc517" d="m 112.18821,94.065604 c -0.53764,0.0023 -0.92739,0.0071 -1.11551,0.01338 -0.1804,0.006 -0.33697,0.02286 -0.47552,0.04892 -0.0297,4.2e-4 -0.0591,0.0012 -0.0888,0.0012 -0.70546,0 -1.69311,3.42e-4 -1.74014,1.209527 0,0 -0.98749,18.490129 0.42343,19.598549 1.41094,1.10841 13.81355,1.31002 14.37793,-0.25184 0.56437,-1.56187 0.47012,-19.397132 0.42309,-20.001725 -0.0412,-0.529018 -8.04094,-0.633793 -11.80444,-0.61795 z m 6.37173,3.577373 c 1.43906,0.0031 2.49635,0.05694 2.65802,0.21439 0.51734,0.503826 0.14105,14.208153 -0.32925,14.460063 -0.47033,0.25191 -8.68693,-6e-5 -9.2513,-0.0504 -0.45128,-0.0403 -0.0725,-9.80246 0.12629,-14.47612 0.0856,0.0051 0.15735,0.01183 0.24971,0.01643 1.39036,0.06928 3.38058,-0.171094 6.54653,-0.164328 z"/><path fill="#171d8f" d="m 72.918515,48.254454 c 0,0 20.110666,0.265548 20.711982,-0.06639 0.601315,-0.331936 0.26725,-30.870036 0.26725,-30.870036 L 72.450825,8.3557571 c 0,0 -2.538886,18.3228609 -2.6057,18.8539579 -0.06681,0.531098 3.07339,21.044735 3.07339,21.044735 z"/><path fill="#7738c7" d="m 58.787602,8.2893741 0.534503,16.7959569 c 0,0 12.928283,23.434671 13.663224,23.301897 C 73.72027,48.254454 72.450825,8.3557611 72.450825,8.3557611 Z"/><path fill="#ff4b3d" d="m 58.40183,6.9277741 c -0.489896,1.265613 -0.489896,2.044451 2.841392,1.947097 3.331287,-0.09736 10.679716,-0.09736 11.169612,0.389419 0.489895,0.486774 4.409057,8.4698709 5.486828,8.8592909 1.077769,0.389418 15.872606,0.389418 17.146338,0.389418 1.273725,0 -4.605018,-10.4169669 -7.0545,-11.0984509 -2.449471,-0.681484 -28.511901,-1.460322 -29.58967,-0.486774 z"/><path fill="#7738c7" d="m 88.303901,25.558549 c -2.859396,0.142895 -5.682595,0.607305 -5.935959,1.893357 -0.253363,1.286053 -0.180975,10.07408 -0.180975,10.07408 0,0 7.999064,-0.03572 7.999064,-0.285787 0,-0.250065 0,-12.038885 0,-12.038885 z"/><path fill="#fff" d="M 84.827871,25.359634 84.780651,37.459395 85.95965,37.307833 85.771016,24.854424 Z"/><path fill="#fff" d="m 79.60523,31.432918 11.059061,0.227344 -0.0236,1.06094 -11.365598,-0.378909 z"/><path fill="#ffc517" d="m 81.076255,23.691534 c -0.381214,0.0016 -0.65756,0.005 -0.790947,0.0095 -0.127918,0.0043 -0.238929,0.01621 -0.337169,0.03468 -0.02102,2.98e-4 -0.0419,8.25e-4 -0.06298,8.25e-4 -0.500208,0 -1.200492,2.43e-4 -1.233841,0.857611 0,0 -0.700177,13.110363 0.300231,13.896284 1.000428,0.785917 11.938332,0.928869 12.338512,-0.178566 0.40016,-1.107436 0.33333,-13.75347 0.29998,-14.182155 -0.0292,-0.375098 -7.84528,-0.449388 -10.513773,-0.438155 z m 6.661725,2.536526 c 1.020366,0.0022 1.770031,0.04037 1.884661,0.152012 0.36682,0.357236 0.10002,10.07424 -0.23346,10.25286 -0.333474,0.178611 -8.303307,-4.4e-5 -8.703469,-0.03576 -0.31998,-0.02855 -0.05133,-6.950403 0.08955,-10.264244 0.06069,0.0036 0.111577,0.0084 0.177068,0.01165 0.985825,0.04912 4.540865,-0.121314 6.785662,-0.116516 z"/><path fill="#171d8f" d="m 111.75293,48.911654 c 0,0 20.11067,0.265548 20.71198,-0.06639 0.60132,-0.331936 0.26725,-30.870036 0.26725,-30.870036 L 111.28524,9.0129571 c 0,0 -2.53889,18.3228609 -2.6057,18.8539579 -0.0668,0.531098 3.07339,21.044735 3.07339,21.044735 z"/><path fill="#7738c7" d="M 97.622017,8.9465741 98.15652,25.742531 c 0,0 12.92828,23.434671 13.66322,23.301897 0.73494,-0.132774 -0.5345,-40.0314669 -0.5345,-40.0314669 z"/><path fill="#ff4b3d" d="m 97.236237,7.5849741 c -0.48989,1.265613 -0.48989,2.044451 2.841403,1.947097 3.33128,-0.09736 10.67971,-0.09736 11.16961,0.389419 0.48989,0.4867739 4.40906,8.4698709 5.48683,8.8592909 1.07777,0.389418 15.8726,0.389418 17.14633,0.389418 1.27373,0 -4.60501,-10.4169669 -7.0545,-11.0984509 -2.44947,-0.681484 -28.5119,-1.460322 -29.589673,-0.486774 z"/><path fill="#7738c7" d="m 127.13832,26.215749 c -2.8594,0.142895 -5.6826,0.607305 -5.93596,1.893357 -0.25337,1.286053 -0.18098,10.07408 -0.18098,10.07408 0,0 7.99907,-0.03572 7.99907,-0.285787 0,-0.250065 0,-12.038885 0,-12.038885 z"/><path fill="#fff" d="m 123.66229,26.016834 -0.0472,12.099761 1.17899,-0.151562 -0.18863,-12.453409 z"/><path fill="#fff" d="m 118.43964,32.090118 11.05907,0.227344 -0.0236,1.06094 -11.3656,-0.378909 z"/><path fill="#ffc517" d="m 119.91067,24.348734 c -0.38121,0.0016 -0.65756,0.005 -0.79095,0.0095 -0.12792,0.0043 -0.23893,0.01621 -0.33717,0.03468 -0.021,2.98e-4 -0.0419,8.25e-4 -0.063,8.25e-4 -0.5002,0 -1.20049,2.43e-4 -1.23384,0.857611 0,0 -0.70017,13.110363 0.30023,13.896284 1.00043,0.785917 11.93834,0.928869 12.33852,-0.178566 0.40016,-1.107436 0.33333,-13.75347 0.29998,-14.182155 -0.0292,-0.375098 -7.84528,-0.449388 -10.51378,-0.438155 z m 6.66172,2.536526 c 1.02037,0.0022 1.77004,0.04037 1.88467,0.152012 0.36682,0.357236 0.10002,10.07424 -0.23346,10.25286 -0.33348,0.178611 -8.30331,-4.4e-5 -8.70347,-0.03576 -0.31998,-0.02855 -0.0513,-6.950403 0.0896,-10.264244 0.0607,0.0036 0.11157,0.0084 0.17706,0.01165 0.98583,0.04912 4.54087,-0.121314 6.78567,-0.116516 z"/><path fill="#7738c7" d="m 120.24072,66.304919 c -2.8594,0.142895 -5.6826,0.607305 -5.93596,1.893357 -0.25336,1.286053 -0.18098,10.07408 -0.18098,10.07408 0,0 7.99907,-0.03572 7.99907,-0.285787 0,-0.250065 0,-12.038885 0,-12.038885 z"/><path fill="#fff" d="m 116.76469,66.106004 -0.0472,12.099761 1.179,-0.151562 -0.18864,-12.453409 z"/><path fill="#fff" d="m 111.54205,72.179288 11.05906,0.227344 -0.0236,1.06094 -11.3656,-0.378909 z"/><path fill="#ffc517" d="m 113.01307,64.437904 c -0.38121,0.0016 -0.65756,0.005 -0.79095,0.0095 -0.12791,0.0043 -0.23892,0.01621 -0.33716,0.03468 -0.021,2.98e-4 -0.0419,8.25e-4 -0.063,8.25e-4 -0.50021,0 -1.2005,2.43e-4 -1.23385,0.857611 0,0 -0.70017,13.110363 0.30024,13.896284 1.00042,0.785917 11.93833,0.928869 12.33851,-0.178566 0.40016,-1.107436 0.33333,-13.75347 0.29998,-14.182155 -0.0292,-0.375098 -7.84528,-0.449388 -10.51378,-0.438155 z m 6.66173,2.536526 c 1.02036,0.0022 1.77003,0.04037 1.88466,0.152012 0.36682,0.357236 0.10002,10.07424 -0.23346,10.25286 -0.33348,0.178611 -8.30331,-4.4e-5 -8.70347,-0.03576 -0.31998,-0.02855 -0.0513,-6.950403 0.0896,-10.264244 0.0607,0.0036 0.11158,0.0084 0.17707,0.01165 0.98582,0.04912 4.54086,-0.121314 6.78566,-0.116516 z"/><path fill="#7738c7" d="m 92.083409,66.304919 c -2.8594,0.142895 -5.6826,0.607305 -5.93596,1.893357 -0.25336,1.286053 -0.18098,10.07408 -0.18098,10.07408 0,0 7.99907,-0.03572 7.99907,-0.285787 0,-0.250065 0,-12.038885 0,-12.038885 z"/><path fill="#fff" d="m 88.607379,66.106004 -0.0472,12.099761 1.179,-0.151562 -0.18864,-12.453409 z"/><path fill="#fff" d="m 83.384739,72.179288 11.05906,0.227344 -0.0236,1.06094 -11.3656,-0.378909 z"/><path fill="#ffc517" d="m 84.855759,64.437904 c -0.38121,0.0016 -0.65756,0.005 -0.79095,0.0095 -0.12791,0.0043 -0.23892,0.01621 -0.33716,0.03468 -0.021,2.98e-4 -0.0419,8.25e-4 -0.063,8.25e-4 -0.50021,0 -1.2005,2.43e-4 -1.23385,0.857611 0,0 -0.70017,13.110363 0.30024,13.896284 1.00042,0.785917 11.93833,0.928869 12.33851,-0.178566 0.40016,-1.107436 0.33333,-13.75347 0.29998,-14.182155 -0.0292,-0.375098 -7.84528,-0.449388 -10.51378,-0.438155 z m 6.66173,2.536526 c 1.02036,0.0022 1.77003,0.04037 1.88466,0.152012 0.36682,0.357236 0.10002,10.07424 -0.23346,10.25286 -0.33348,0.178611 -8.30331,-4.4e-5 -8.70347,-0.03576 -0.31998,-0.02855 -0.0513,-6.950403 0.0896,-10.264244 0.0607,0.0036 0.11158,0.0084 0.17707,0.01165 0.98582,0.04912 4.54086,-0.121314 6.78566,-0.116516 z"/><path fill="#171d8f" d="m 61.152748,61.798408 c -2.8594,0.142895 -28.231933,0.607305 -28.485293,1.893357 -0.25336,1.286053 -0.18098,10.07408 -0.18098,10.07408 0,0 30.548403,-0.03572 30.548403,-0.285787 V 61.441173 Z"/><path fill="#fff" d="m 36.797706,61.599493 -0.0472,12.099761 1.179,-0.151562 -0.18864,-12.453409 z"/><path fill="#fff" d="m 30.569023,67.672777 33.311122,0.227344 -0.07108,1.06094 -34.234455,-0.378909 z"/><path fill="#fff" d="M45.817439 61.599493l-.0472 12.099761 1.179-.151562-.18864-12.453409zM55.104423 61.599493l-.0472 12.099761 1.179-.151562-.18864-12.453409z"/><path fill="#ffc517" d="m 31.375765,59.931393 c -0.38121,0.0016 -0.65756,0.005 -0.79095,0.0095 -0.12791,0.0043 -0.23892,0.01621 -0.33716,0.03468 -0.021,2.98e-4 -0.0419,8.25e-4 -0.063,8.25e-4 -0.50021,0 -1.2005,2.43e-4 -1.23385,0.857611 0,0 -0.70017,13.110363 0.30024,13.896284 1.00042,0.785917 35.389636,0.928869 35.789816,-0.178566 0.40016,-1.107436 0.33333,-13.75347 0.29998,-14.182155 -0.0292,-0.375098 -31.296586,-0.449388 -33.965086,-0.438155 z m 29.277876,2.536526 c 1.02036,0.0022 1.77003,0.04037 1.88466,0.152012 0.36682,0.357236 0.10002,10.07424 -0.23346,10.25286 -0.33348,0.178611 -30.919456,-4.4e-5 -31.319616,-0.03576 -0.31998,-0.02855 -0.0513,-6.950403 0.0896,-10.264244 0.0607,0.0036 0.11158,0.0084 0.17707,0.01165 0.98582,0.04912 27.157006,-0.121314 29.401806,-0.116516 z"/><path fill="#fff" d="m 63.534377,50.253434 c 0,0 3.826748,6.712823 5.291306,7.229195 1.464558,0.51637 5.669258,0.610257 8.598374,0.563313 2.929115,-0.04694 9.9212,-0.3286 10.960564,0 1.039364,0.328601 -15.212506,1.736884 -16.629822,1.736884 -1.417313,0 -0.944875,2.722685 -0.944875,5.445368 0,2.722684 1.275582,11.172393 0.330705,11.782648 -0.944875,0.610257 -1.5118,-16.289158 -2.362191,-17.228016 -0.850387,-0.938855 -4.393673,-7.229194 -6.425156,-10.092705 -2.031486,-2.863513 -0.566928,-2.863513 1.181095,0.563313 z"/></g></svg>