<svg xmlns="http://www.w3.org/2000/svg" enable-background="new 0 0 496 424" viewBox="0 0 496 424"><path fill="#ffdbac" d="M256 252c-6.583 52.111-5.553 110.261 0 172h96c21.333-12.784 42.667-12.784 64 0h40V252C393.826 240.654 326.622 242.012 256 252zM452 64l-204-8L44 64h-4v154.22h416V64H452zM40 252v172h40c23.304-11.944 44.47-10.932 64 0h96c8.703-61.931 10.404-120.163 0-172C168.457 242.189 100.94 240.477 40 252z"/><polygon fill="#6fceae" points="456 0 496 48 480 48 248 56 16 48 0 48 40 0 248 0"/><path fill="#6fceae" d="M496,236h-8c-56.331,6.515-109.708,10.72-144,0l-67.76-48H388l68,30.22L496,236z"/><polygon fill="#655f68" points="480 48 480 64 456 64 452 64 248 64 44 64 40 64 16 64 16 48 248 48"/><path fill="#604533" d="M416,296v128h-64V296H416z M384,360c0-4.42-3.58-8-8-8s-8,3.58-8,8s3.58,8,8,8S384,364.42,384,360z"/><polygon fill="#655f68" points="344 236 315.76 236 247.179 200.858 180.24 236 152 236 219.76 188 248 168 276.24 188"/><path fill="#6fceae" d="M219.76,188L152,236c-50.285,8.154-98.528,9.019-144,0H0l40-17.78L108,188H219.76z"/><path fill="#604533" d="M144,296v128H80V296H144z M128,360c0-4.42-3.58-8-8-8s-8,3.58-8,8s3.58,8,8,8S128,364.42,128,360z"/><rect width="40" height="44" x="284" y="340" fill="#c3ddda"/><rect width="40" height="44" x="172" y="340" fill="#c3ddda"/><rect width="40" height="40" x="360" y="124" fill="#c3ddda"/><rect width="40" height="40" x="284" y="124" fill="#c3ddda"/><rect width="40" height="40" x="172" y="124" fill="#c3ddda"/><rect width="40" height="40" x="96" y="124" fill="#c3ddda"/><rect width="40" height="40" x="360" y="84" fill="#e7f2f1"/><rect width="40" height="40" x="284" y="84" fill="#e7f2f1"/><rect width="40" height="40" x="172" y="84" fill="#e7f2f1"/><rect width="40" height="40" x="96" y="84" fill="#e7f2f1"/><rect width="40" height="44" x="284" y="296" fill="#e7f2f1"/><rect width="40" height="44" x="172" y="296" fill="#e7f2f1"/><circle cx="376" cy="360" r="8" fill="#ffc05a"/><circle cx="120" cy="360" r="8" fill="#ffc05a"/><polygon fill="#604533" points="488 236 488 252 456 252 256 252 248.771 258.003 240 252 40 252 8 252 8 236 152 236 180.24 236 248.558 225.297 315.76 236 344 236"/><polygon fill="#5d5560" points="256 252 256 424 240 424 240 252 248 252"/><polygon fill="#ad6a6a" points="315.76 236 248 236 180.24 236 248 188"/><polygon fill="#edcca4" points="456 64 456 84 400 84 360 84 324 84 284 84 212 84 172 84 136 84 96 84 40 84 40 64 44 64 248 64 452 64"/><polygon fill="#5d5560" points="256 252 256 278.15 240 278.15 240 252 248 252"/><rect width="200" height="26.15" x="40" y="252" fill="#edcca4"/><rect width="200" height="26.15" x="256" y="252" fill="#edcca4"/></svg>