<svg xmlns="http://www.w3.org/2000/svg" viewBox="0 0 512 512"><g data-name="filled outline"><path fill="#8d8872" d="M88 24h336v432H88z"/><path fill="#7c7865" d="M88 352h336v8H88zM88 192h336v8H88zM88 32h336v8H88z"/><path fill="#9c967e" d="M120 56h48v96h-48z"/><path fill="#767260" d="M280 400v56h-48v-56a24 24 0 0 1 20-23.66 22.974 22.974 0 0 1 4-.34 24 24 0 0 1 24 24zm-112 0v56h-48v-56a24 24 0 0 1 20-23.66 22.974 22.974 0 0 1 4-.34 24 24 0 0 1 24 24zm224 0v56h-48v-56a24 24 0 0 1 20-23.66 22.974 22.974 0 0 1 4-.34 24 24 0 0 1 24 24z"/><path fill="#da922a" d="M272 400v56h-40v-56a24 24 0 0 1 20-23.66A23.993 23.993 0 0 1 272 400zm-112 0v56h-40v-56a24 24 0 0 1 20-23.66A23.993 23.993 0 0 1 160 400zm224 0v56h-40v-56a24 24 0 0 1 20-23.66A23.993 23.993 0 0 1 384 400z"/><path fill="#ebebeb" d="M168 48h-48a8 8 0 0 0-8 8v96a8 8 0 0 0 8 8h48a8 8 0 0 0 8-8V56a8 8 0 0 0-8-8Zm-8 48h-8V64h8Zm-24-32v32h-8V64Zm-8 48h8v32h-8Zm24 32v-32h8v32Z"/><path fill="#4f7059" d="M304 24h16v432h-16z"/><path fill="#9c967e" d="M120 216h48v96h-48z"/><path fill="#ebebeb" d="M168 208h-48a8 8 0 0 0-8 8v96a8 8 0 0 0 8 8h48a8 8 0 0 0 8-8v-96a8 8 0 0 0-8-8Zm-8 48h-8v-32h8Zm-24-32v32h-8v-32Zm-8 48h8v32h-8Zm24 32v-32h8v32Z"/><path fill="#9c967e" d="M232 56h48v96h-48z"/><path fill="#ebebeb" d="M280 48h-48a8 8 0 0 0-8 8v96a8 8 0 0 0 8 8h48a8 8 0 0 0 8-8V56a8 8 0 0 0-8-8Zm-8 48h-8V64h8Zm-24-32v32h-8V64Zm-8 48h8v32h-8Zm24 32v-32h8v32Z"/><path fill="#9c967e" d="M232 216h48v96h-48z"/><path fill="#ebebeb" d="M280 208h-48a8 8 0 0 0-8 8v96a8 8 0 0 0 8 8h48a8 8 0 0 0 8-8v-96a8 8 0 0 0-8-8Zm-8 48h-8v-32h8Zm-24-32v32h-8v-32Zm-8 48h8v32h-8Zm24 32v-32h8v32Z"/><path fill="#9c967e" d="M344 56h48v96h-48z"/><path fill="#ebebeb" d="M392 48h-48a8 8 0 0 0-8 8v96a8 8 0 0 0 8 8h48a8 8 0 0 0 8-8V56a8 8 0 0 0-8-8Zm-8 48h-8V64h8Zm-24-32v32h-8V64Zm-8 48h8v32h-8Zm24 32v-32h8v32Z"/><path fill="#9c967e" d="M344 216h48v96h-48z"/><path fill="#ebebeb" d="M392 208h-48a8 8 0 0 0-8 8v96a8 8 0 0 0 8 8h48a8 8 0 0 0 8-8v-96a8 8 0 0 0-8-8Zm-8 48h-8v-32h8Zm-24-32v32h-8v-32Zm-8 48h8v32h-8Zm24 32v-32h8v32Z"/><path fill="#4f7059" d="M192 24h16v440h-16z"/><path fill="#55785f" d="M72 16h368v16H72zM72 176h368v16H72zM72 336h368v16H72zM448 488H64v-24a8 8 0 0 1 8-8h368a8 8 0 0 1 8 8Z"/><path fill="#4f7059" d="M64 472h384v16H64z"/><path d="M168 208h-48a8 8 0 0 0-8 8v96a8 8 0 0 0 8 8h48a8 8 0 0 0 8-8v-96a8 8 0 0 0-8-8zm-32 96h-8v-32h8zm0-48h-8v-32h8zm24 48h-8v-32h8zm0-48h-8v-32h8zm120-48h-48a8 8 0 0 0-8 8v96a8 8 0 0 0 8 8h48a8 8 0 0 0 8-8v-96a8 8 0 0 0-8-8zm-32 96h-8v-32h8zm0-48h-8v-32h8zm24 48h-8v-32h8zm0-48h-8v-32h8zm120-48h-48a8 8 0 0 0-8 8v96a8 8 0 0 0 8 8h48a8 8 0 0 0 8-8v-96a8 8 0 0 0-8-8zm-32 96h-8v-32h8zm0-48h-8v-32h8zm24 48h-8v-32h8zm0-48h-8v-32h8zM168 48h-48a8 8 0 0 0-8 8v96a8 8 0 0 0 8 8h48a8 8 0 0 0 8-8V56a8 8 0 0 0-8-8zm-32 96h-8v-32h8zm0-48h-8V64h8zm24 48h-8v-32h8zm0-48h-8V64h8zm120-48h-48a8 8 0 0 0-8 8v96a8 8 0 0 0 8 8h48a8 8 0 0 0 8-8V56a8 8 0 0 0-8-8zm-32 96h-8v-32h8zm0-48h-8V64h8zm24 48h-8v-32h8zm0-48h-8V64h8zm120-48h-48a8 8 0 0 0-8 8v96a8 8 0 0 0 8 8h48a8 8 0 0 0 8-8V56a8 8 0 0 0-8-8zm-32 96h-8v-32h8zm0-48h-8V64h8zm24 48h-8v-32h8zm0-48h-8V64h8z"/><path d="M64 496h384a8 8 0 0 0 8-8v-32a8 8 0 0 0-8-8h-16v-96h8v-16h-8V192h8v-16h-8V32h8V16H72v16h8v144h-8v16h8v144h-8v16h8v96H64a8 8 0 0 0-8 8v32a8 8 0 0 0 8 8ZM320 32h96v144h-96Zm0 160h96v144h-96Zm0 160h96v96h-16v-48a32 32 0 0 0-64 0v48h-16Zm64 48v48h-32v-48a16 16 0 0 1 32 0ZM208 32h96v144h-96Zm0 160h96v144h-96Zm0 160h96v96h-16v-48a32 32 0 0 0-64 0v48h-16Zm64 48v48h-32v-48a16 16 0 0 1 32 0ZM96 32h96v144H96Zm0 160h96v144H96Zm0 160h96v96h-16v-48a32 32 0 0 0-64 0v48H96Zm64 48v48h-32v-48a16 16 0 0 1 32 0Zm-88 64h368v16H72Z"/></g></svg>