<svg width="26" height="26" viewBox="0 0 26 26" fill="none" xmlns="http://www.w3.org/2000/svg">
<path d="M21.45 17.8752L19.2563 16.3314L15.7625 13.8939L13.4062 12.2689C13.4062 12.2689 13.4062 12.2689 13.325 12.1877C13.2437 12.1877 13.1625 12.1064 13.1625 12.1064C13.0813 12.1064 13 12.1064 12.9187 12.1064H12.8375C12.7563 12.1064 12.675 12.1877 12.675 12.1877C12.675 12.1877 12.675 12.1877 12.5938 12.1877L10.2375 13.8127L6.74375 16.2502L4.55 17.8752C2.925 18.0377 1.625 19.4189 1.625 21.1252C1.625 22.9127 3.0875 24.3752 4.875 24.3752C6.6625 24.3752 8.125 22.9127 8.125 21.1252C8.125 19.9877 7.55625 19.0127 6.6625 18.4439L7.6375 17.7127L11.1312 15.2752L12.1875 14.5439V15.8439V17.9564C10.8062 18.2814 9.75 19.5814 9.75 21.1252C9.75 22.9127 11.2125 24.3752 13 24.3752C14.7875 24.3752 16.25 22.9127 16.25 21.1252C16.25 19.5814 15.1938 18.3627 13.8125 17.9564V15.8439V14.5439L14.8687 15.2752L18.3625 17.7127L19.3375 18.4439C18.4437 19.0127 17.875 19.9877 17.875 21.1252C17.875 22.9127 19.3375 24.3752 21.125 24.3752C22.9125 24.3752 24.375 22.9127 24.375 21.1252C24.375 19.4189 23.075 18.0377 21.45 17.8752Z" fill="black" fill-opacity="0.7"/>
<path d="M8.93793 11.375H17.0629C17.3067 11.375 17.5504 11.2938 17.7129 11.05C17.8754 10.8875 17.9567 10.6438 17.8754 10.4C17.6317 9.18125 16.7379 8.20625 15.5192 7.88125C15.1942 7.8 14.9504 7.55625 14.8692 7.23125C15.1942 6.825 15.4379 6.25625 15.4379 5.6875V4.0625C15.4379 2.68125 14.3817 1.625 13.0004 1.625C11.6192 1.625 10.5629 2.68125 10.5629 4.0625V5.6875C10.5629 6.25625 10.8067 6.825 11.1317 7.23125C11.0504 7.55625 10.8067 7.8 10.4817 7.88125C9.26293 8.20625 8.36918 9.18125 8.20668 10.4C8.12543 10.6438 8.20668 10.8875 8.36918 11.05C8.45043 11.2938 8.69418 11.375 8.93793 11.375Z" fill="black" fill-opacity="0.7"/>
</svg>
