<svg width="30" height="16" viewBox="0 0 30 16" fill="none" xmlns="http://www.w3.org/2000/svg">
<path d="M7.97342 10.6667C7.24252 10.6667 6.61705 10.4053 6.09701 9.88267C5.57608 9.36089 5.31561 8.73333 5.31561 8C5.31561 7.26667 5.57608 6.63867 6.09701 6.116C6.61705 5.59422 7.24252 5.33333 7.97342 5.33333C8.70432 5.33333 9.32979 5.59422 9.84983 6.116C10.3708 6.63867 10.6312 7.26667 10.6312 8C10.6312 8.73333 10.3708 9.36089 9.84983 9.88267C9.32979 10.4053 8.70432 10.6667 7.97342 10.6667ZM7.97342 16C5.75858 16 3.87597 15.2222 2.32558 13.6667C0.775194 12.1111 0 10.2222 0 8C0 5.77778 0.775194 3.88889 2.32558 2.33333C3.87597 0.777778 5.75858 0 7.97342 0C9.45736 0 10.8031 0.366666 12.0106 1.1C13.2173 1.83333 14.175 2.8 14.8837 4H26.0133C26.1905 4 26.3623 4.03333 26.5289 4.1C26.6946 4.16667 26.8439 4.26667 26.9767 4.4L29.6345 7.06667C29.7674 7.2 29.8618 7.34444 29.9176 7.5C29.9725 7.65556 30 7.82222 30 8C30 8.17778 29.9725 8.34444 29.9176 8.5C29.8618 8.65556 29.7674 8.8 29.6345 8.93333L25.4153 13.1667C25.3045 13.2778 25.1716 13.3667 25.0166 13.4333C24.8616 13.5 24.7065 13.5444 24.5515 13.5667C24.3965 13.5889 24.2414 13.5778 24.0864 13.5333C23.9313 13.4889 23.7874 13.4111 23.6545 13.3L21.9269 12L20.0332 13.4333C19.9225 13.5222 19.8007 13.5889 19.6678 13.6333C19.5349 13.6778 19.402 13.7 19.2691 13.7C19.1362 13.7 18.998 13.6778 18.8545 13.6333C18.7101 13.5889 18.5825 13.5222 18.4718 13.4333L16.4452 12H14.8837C14.175 13.2 13.2173 14.1667 12.0106 14.9C10.8031 15.6333 9.45736 16 7.97342 16ZM7.97342 13.3333C9.21373 13.3333 10.3048 12.9556 11.2465 12.2C12.1874 11.4444 12.8128 10.4889 13.1229 9.33333H17.2757L19.2027 10.7V10.716V10.7L21.9269 8.66667L24.2857 10.5L26.7774 8H26.7615H26.7774L25.4485 6.66667V6.65067V6.66667H13.1229C12.8128 5.51111 12.1874 4.55556 11.2465 3.8C10.3048 3.04445 9.21373 2.66667 7.97342 2.66667C6.51163 2.66667 5.26024 3.18889 4.21927 4.23333C3.17829 5.27778 2.65781 6.53333 2.65781 8C2.65781 9.46667 3.17829 10.7222 4.21927 11.7667C5.26024 12.8111 6.51163 13.3333 7.97342 13.3333Z" fill="#FD6602"/>
</svg>
