<svg width="23" height="23" viewBox="0 0 23 23" fill="none" xmlns="http://www.w3.org/2000/svg">
<path d="M18.9643 0.398926H4.45503C3.45452 0.398926 2.495 0.796375 1.78753 1.50384C1.08007 2.2113 0.682617 3.17083 0.682617 4.17134V18.6806C0.682617 19.176 0.780193 19.6666 0.969775 20.1243C1.15936 20.5819 1.43723 20.9978 1.78753 21.3481C2.13783 21.6984 2.5537 21.9763 3.01139 22.1659C3.46908 22.3555 3.95963 22.453 4.45503 22.453H18.9643C19.4597 22.453 19.9503 22.3555 20.4079 22.1659C20.8656 21.9763 21.2815 21.6984 21.6318 21.3481C21.9821 20.9978 22.26 20.5819 22.4496 20.1243C22.6391 19.6666 22.7367 19.176 22.7367 18.6806V4.17134C22.7367 3.67594 22.6391 3.18539 22.4496 2.7277C22.26 2.27001 21.9821 1.85414 21.6318 1.50384C21.2815 1.15354 20.8656 0.875665 20.4079 0.686084C19.9503 0.496502 19.4597 0.398926 18.9643 0.398926ZM4.16484 13.7475C4.16484 12.9778 4.47057 12.2397 5.01478 11.6955C5.55898 11.1513 6.29708 10.8456 7.0667 10.8456C7.83632 10.8456 8.57442 11.1513 9.11862 11.6955C9.66283 12.2397 9.96856 12.9778 9.96856 13.7475C9.96856 14.5171 9.66283 15.2552 9.11862 15.7994C8.57442 16.3436 7.83632 16.6493 7.0667 16.6493C6.29708 16.6493 5.55898 16.3436 5.01478 15.7994C4.47057 15.2552 4.16484 14.5171 4.16484 13.7475ZM12.29 13.4573C12.29 13.2264 12.3818 13.005 12.545 12.8417C12.7083 12.6784 12.9297 12.5867 13.1606 12.5867H18.9643C19.1952 12.5867 19.4166 12.6784 19.5799 12.8417C19.7431 13.005 19.8349 13.2264 19.8349 13.4573C19.8349 13.6882 19.7431 13.9096 19.5799 14.0729C19.4166 14.2361 19.1952 14.3278 18.9643 14.3278H13.1606C12.9297 14.3278 12.7083 14.2361 12.545 14.0729C12.3818 13.9096 12.29 13.6882 12.29 13.4573ZM4.16484 7.65356C4.16484 7.42268 4.25656 7.20125 4.41982 7.03799C4.58309 6.87473 4.80451 6.78301 5.0354 6.78301H18.9643C19.1952 6.78301 19.4166 6.87473 19.5799 7.03799C19.7431 7.20125 19.8349 7.42268 19.8349 7.65356C19.8349 7.88445 19.7431 8.10588 19.5799 8.26914C19.4166 8.4324 19.1952 8.52412 18.9643 8.52412H5.0354C4.80451 8.52412 4.58309 8.4324 4.41982 8.26914C4.25656 8.10588 4.16484 7.88445 4.16484 7.65356Z" fill="#FD6602"/>
</svg>
