<svg width="24" height="25" viewBox="0 0 24 25" fill="none" xmlns="http://www.w3.org/2000/svg">
<path d="M15.3379 2.02329L11.9999 0.295288L8.66189 2.02329L4.94589 2.58729L3.26189 5.94729L0.587891 8.58729L1.19989 12.2953L0.587891 16.0033L3.26189 18.6433L4.94589 22.0033L8.66189 22.5673L11.9999 24.2953L15.3379 22.5673L19.0539 22.0033L20.7379 18.6433L23.4119 16.0033L22.7999 12.2953L23.4119 8.58729L20.7379 5.94729L19.0539 2.58729L15.3379 2.02329ZM17.7299 4.40929L19.0979 7.13929L21.2699 9.28329L20.7739 12.2953L21.2699 15.3073L19.0979 17.4513L17.7299 20.1813L14.7099 20.6393L11.9999 22.0433L9.28989 20.6393L6.26989 20.1813L4.90189 17.4513L2.72989 15.3073L3.22789 12.2953L2.72789 9.28329L4.90189 7.13929L6.26989 4.40929L9.28989 3.95129L11.9999 2.54729L14.7119 3.95129L17.7299 4.40929Z" fill="#FD6602"/>
</svg>
