<svg width="9" height="10" viewBox="0 0 9 10" fill="none" xmlns="http://www.w3.org/2000/svg">
<path d="M5.9837 0H4.08006C3.21771 0 2.53427 0 1.99994 0.072352C1.44948 0.146659 1.00413 0.303096 0.653123 0.655567C0.301629 1.00804 0.145682 1.45535 0.0718631 2.00777C3.64232e-08 2.54454 0 3.23042 0 4.0962V6.95019C0 7.6874 0.449755 8.31901 1.0887 8.58397C1.05595 8.13911 1.05595 7.5158 1.05595 6.99663V4.54742C1.05595 3.92118 1.05595 3.38099 1.11363 2.94883C1.17572 2.48539 1.31553 2.0415 1.67436 1.68121C2.03319 1.32091 2.47561 1.18061 2.9371 1.11803C3.3673 1.06035 3.90505 1.06035 4.52933 1.06035H6.03014C6.65394 1.06035 7.19071 1.06035 7.6214 1.11803C7.49233 0.788721 7.26706 0.505923 6.97494 0.306497C6.68282 0.107071 6.3374 0.000265354 5.9837 0Z" fill="#FD6602"/>
<path d="M1.75977 4.59419C1.75977 3.26155 1.75977 2.59523 2.17237 2.18116C2.58448 1.76709 3.24787 1.76709 4.57563 1.76709H5.98356C7.31082 1.76709 7.9747 1.76709 8.3873 2.18116C8.79942 2.59523 8.79942 3.26155 8.79942 4.59419V6.95052C8.79942 8.28316 8.79942 8.94949 8.3873 9.36356C7.9747 9.77762 7.31082 9.77762 5.98356 9.77762H4.57563C3.24836 9.77762 2.58448 9.77762 2.17237 9.36356C1.75977 8.94949 1.75977 8.28316 1.75977 6.95052V4.59419Z" fill="#FD6602"/>
</svg>
