<svg width="28" height="34" viewBox="0 0 28 34" fill="none" xmlns="http://www.w3.org/2000/svg">
<path d="M14.0003 17C14.917 17 15.702 16.6733 16.3553 16.02C17.0075 15.3678 17.3337 14.5833 17.3337 13.6666C17.3337 12.75 17.0075 11.965 16.3553 11.3116C15.702 10.6594 14.917 10.3333 14.0003 10.3333C13.0837 10.3333 12.2992 10.6594 11.647 11.3116C10.9937 11.965 10.667 12.75 10.667 13.6666C10.667 14.5833 10.9937 15.3678 11.647 16.02C12.2992 16.6733 13.0837 17 14.0003 17ZM14.0003 29.25C17.3892 26.1389 19.9031 23.3122 21.542 20.77C23.1809 18.2289 24.0003 15.9722 24.0003 14C24.0003 10.9722 23.0348 8.49276 21.1037 6.56165C19.1737 4.63165 16.8059 3.66665 14.0003 3.66665C11.1948 3.66665 8.82644 4.63165 6.89533 6.56165C4.96533 8.49276 4.00033 10.9722 4.00033 14C4.00033 15.9722 4.81977 18.2289 6.45866 20.77C8.09755 23.3122 10.6114 26.1389 14.0003 29.25ZM14.0003 33.0416C13.7781 33.0416 13.5559 33 13.3337 32.9166C13.1114 32.8333 12.917 32.7222 12.7503 32.5833C8.69477 29 5.66699 25.6739 3.66699 22.605C1.66699 19.535 0.666992 16.6666 0.666992 14C0.666992 9.83331 2.00755 6.51387 4.68866 4.04165C7.36866 1.56942 10.4725 0.333313 14.0003 0.333313C17.5281 0.333313 20.632 1.56942 23.312 4.04165C25.9931 6.51387 27.3337 9.83331 27.3337 14C27.3337 16.6666 26.3337 19.535 24.3337 22.605C22.3337 25.6739 19.3059 29 15.2503 32.5833C15.0837 32.7222 14.8892 32.8333 14.667 32.9166C14.4448 33 14.2225 33.0416 14.0003 33.0416Z" fill="black" fill-opacity="0.5"/>
</svg>
