<svg width="18" height="18" viewBox="0 0 18 18" fill="none" xmlns="http://www.w3.org/2000/svg">
<g id="6843097_asset_dollar_finance_financial_investment_icon 1">
<g id="Money_asset">
<path id="Vector" d="M3.95937 3.75452C5.45562 3.62514 6.25156 4.16233 6.56374 4.45483C7.30641 4.82937 8.12544 5.02763 8.95718 5.0342C9.81414 5.03258 10.6564 4.81184 11.4041 4.39295C11.7528 4.09764 12.5403 3.63358 13.9409 3.75452C14.0752 3.76574 14.2084 3.72335 14.3115 3.63661C14.4146 3.54987 14.4792 3.42584 14.4911 3.29164C14.503 3.15743 14.4612 3.02398 14.375 2.92046C14.2888 2.81694 14.1651 2.75177 14.0309 2.7392C12.9834 2.60285 11.9213 2.83877 11.03 3.40577L11.5841 1.66483C11.6179 1.55754 11.6259 1.4438 11.6076 1.33282C11.5892 1.22184 11.545 1.11675 11.4784 1.02607C11.4118 0.935394 11.3248 0.861685 11.2244 0.81092C11.124 0.760156 11.0131 0.733766 10.9006 0.733891H7.00249C6.88841 0.733498 6.7759 0.760427 6.67436 0.812425C6.57282 0.864423 6.4852 0.939979 6.41884 1.03277C6.35248 1.12557 6.30931 1.2329 6.29293 1.3458C6.27654 1.4587 6.28743 1.57388 6.32468 1.6817L6.92656 3.44514C6.35562 3.04295 5.37406 2.60702 3.87218 2.7392C3.73754 2.75077 3.61301 2.81534 3.52598 2.91872C3.43895 3.0221 3.39656 3.15581 3.40812 3.29045C3.41968 3.42509 3.48425 3.54962 3.58763 3.63665C3.69101 3.72368 3.82473 3.76608 3.95937 3.75452Z" fill="white"/>
<path id="Vector_2" d="M16.5284 14.3577L15.6115 12.4424C15.3893 11.9765 15.2795 11.465 15.2909 10.949C15.3246 9.39646 15.0687 5.81615 12.1493 4.84021C11.2083 5.4499 10.1121 5.7769 8.99087 5.7824C7.85259 5.77222 6.73777 5.45758 5.76212 4.87115C2.92431 5.88646 2.67681 9.41333 2.71056 10.949C2.72093 11.4652 2.61015 11.9767 2.38712 12.4424L1.47306 14.3577C1.3281 14.6605 1.26224 14.995 1.28164 15.3301C1.30104 15.6652 1.40507 15.9899 1.58401 16.2739C1.76294 16.5579 2.01095 16.7919 2.30485 16.9541C2.59875 17.1162 2.92896 17.2012 3.26462 17.2011H14.734C15.0698 17.2013 15.4001 17.1164 15.6942 16.9544C15.9882 16.7923 16.2364 16.5584 16.4156 16.2745C16.5948 15.9905 16.6991 15.6658 16.7189 15.3306C16.7386 14.9954 16.673 14.6607 16.5284 14.3577ZM9.48368 14.0563H9.3727V14.9872C9.3727 15.0991 9.32825 15.2064 9.24913 15.2855C9.17001 15.3646 9.06271 15.4091 8.95082 15.4091C8.83893 15.4091 8.73163 15.3646 8.65251 15.2855C8.57339 15.2064 8.52895 15.0991 8.52895 14.9872V14.0563H7.29586C7.18397 14.0563 7.07667 14.0118 6.99755 13.9327C6.91843 13.8536 6.87399 13.7463 6.87399 13.6344C6.87399 13.5225 6.91843 13.4152 6.99755 13.3361C7.07667 13.257 7.18397 13.2125 7.29586 13.2125H9.48368C9.66941 13.2125 9.84754 13.1387 9.97887 13.0074C10.1102 12.8761 10.184 12.6979 10.184 12.5122C10.184 12.3265 10.1102 12.1483 9.97887 12.017C9.84754 11.8857 9.66941 11.8119 9.48368 11.8119H8.50212C8.07028 11.8119 7.65613 11.6403 7.35078 11.335C7.04542 11.0296 6.87387 10.6155 6.87387 10.1837C6.87387 9.75181 7.04542 9.33767 7.35078 9.03231C7.65613 8.72696 8.07028 8.55541 8.50212 8.55541H8.52875V7.52502C8.52875 7.41313 8.5732 7.30583 8.65231 7.22671C8.73143 7.14759 8.83874 7.10315 8.95062 7.10315C9.06251 7.10315 9.16982 7.14759 9.24894 7.22671C9.32805 7.30583 9.3725 7.41313 9.3725 7.52502V8.55555H10.4099C10.4653 8.55555 10.5202 8.56646 10.5713 8.58766C10.6225 8.60887 10.669 8.63994 10.7082 8.67911C10.7474 8.71829 10.7785 8.7648 10.7997 8.81598C10.8209 8.86717 10.8318 8.92202 10.8318 8.97743C10.8318 9.03283 10.8209 9.08769 10.7997 9.13887C10.7785 9.19005 10.7474 9.23656 10.7082 9.27574C10.669 9.31491 10.6225 9.34599 10.5713 9.36719C10.5202 9.38839 10.4653 9.3993 10.4099 9.3993H8.50212C8.29405 9.3993 8.09452 9.48195 7.9474 9.62907C7.80028 9.77619 7.71762 9.97573 7.71762 10.1838C7.71762 10.3919 7.80028 10.5914 7.9474 10.7385C8.09452 10.8856 8.29405 10.9683 8.50212 10.9683H9.48368C9.89319 10.9683 10.2859 11.131 10.5755 11.4205C10.8651 11.7101 11.0277 12.1028 11.0277 12.5123C11.0277 12.9219 10.8651 13.3146 10.5755 13.6042C10.2859 13.8937 9.89319 14.0563 9.48368 14.0563Z" fill="white"/>
</g>
</g>
</svg>
