<svg width="92" height="69" viewBox="0 0 92 69" fill="none" xmlns="http://www.w3.org/2000/svg">
<path d="M27.5951 0.174649L40.2147 8.39201L25.5408 30.6963C29.6495 31.4789 33.0734 33.5332 35.8125 36.8593C38.7473 40.1854 40.2147 44.1962 40.2147 48.8919C40.2147 54.3701 38.2581 59.0658 34.3451 62.9788C30.6277 66.8918 25.9321 68.8483 20.2582 68.8483C14.5843 68.6527 9.79085 66.5983 5.87782 62.6853C2.16044 58.7723 0.301751 53.9788 0.301751 48.3049C0.301751 45.5658 0.79088 42.7289 1.76914 39.7941C2.7474 36.8593 4.31261 33.9245 6.46477 30.9898L27.5951 0.174649ZM79.2471 0.174649L91.8667 8.39201L77.1928 30.6963C81.3015 31.4789 84.7254 33.5332 87.4645 36.8593C90.3993 40.1854 91.8667 44.1962 91.8667 48.8919C91.8667 54.3701 89.9101 59.0658 85.9971 62.9788C82.2797 66.8918 77.5841 68.8483 71.9102 68.8483C66.2363 68.6527 61.4428 66.5983 57.5298 62.6853C53.8124 58.7723 51.9537 53.9788 51.9537 48.3049C51.9537 45.5658 52.4429 42.7289 53.4211 39.7941C54.3994 36.8593 55.9646 33.9245 58.1168 30.9898L79.2471 0.174649Z" fill="#FD6602" fill-opacity="0.26"/>
</svg>
