<svg width="20" height="18" viewBox="0 0 20 18" fill="none" xmlns="http://www.w3.org/2000/svg">
<path d="M17.5 6.42857V2.57143C17.5 1.88944 17.2366 1.23539 16.7678 0.753154C16.2989 0.270917 15.663 0 15 0H5C4.33696 0 3.70107 0.270917 3.23223 0.753154C2.76339 1.23539 2.5 1.88944 2.5 2.57143V6.42857C1.83696 6.42857 1.20107 6.69949 0.732233 7.18173C0.263392 7.66396 0 8.31801 0 9V15.4286H1.6625L2.5 18H3.75L4.5875 15.4286H15.4125L16.25 18H17.5L18.3375 15.4286H20V9C20 8.31801 19.7366 7.66396 19.2678 7.18173C18.7989 6.69949 18.163 6.42857 17.5 6.42857ZM8.75 6.42857H5V2.57143H8.75M15 6.42857H11.25V2.57143H15V6.42857Z" fill="#FD6602"/>
</svg>
