<svg width="18" height="18" viewBox="0 0 18 18" fill="none" xmlns="http://www.w3.org/2000/svg">
<g clip-path="url(#clip0_1038_95)">
<path d="M7.4816 8.13234C7.42078 10.4014 6.47691 11.7428 4.13367 11.4966V5.03002C6.50127 4.76933 7.49362 6.00511 7.4816 8.13234ZM18 0V18H0V0H18ZM9.00408 8.09958C9.00408 5.48842 7.62891 3.70396 4.87041 3.70396H2.63573V12.8308H4.78853C6.6221 12.8308 9.00411 11.734 9.00411 8.09958H9.00408ZM15.3724 8.42702C15.3724 6.43792 14.0791 5.98771 12.9249 5.98771C11.9836 5.98771 11.0505 6.26604 10.3547 6.52795C10.2053 6.59654 10.3306 6.56019 10.3301 7.4693V12.8063H11.8281V7.45295C13.1306 7.0824 13.8914 7.3871 13.8745 8.53344V12.8063H15.3724V8.42702Z" fill="#FD6602"/>
</g>
<defs>
<clipPath id="clip0_1038_95">
<rect width="18" height="18" fill="white"/>
</clipPath>
</defs>
</svg>
