<svg width="20" height="20" viewBox="0 0 20 20" fill="none" xmlns="http://www.w3.org/2000/svg">
<g id="mingcute:target-fill" clip-path="url(#clip0_863_224)">
<g id="Group">
<path id="Vector" d="M10.0003 1.66663C10.747 1.66663 11.4703 1.76496 12.1587 1.94913L10.387 3.71996C10.2526 3.8549 10.134 4.00476 10.0337 4.16663H10.0003C8.8466 4.16663 7.71879 4.50874 6.7595 5.14972C5.80021 5.79069 5.05254 6.70174 4.61103 7.76764C4.16952 8.83354 4.054 10.0064 4.27908 11.138C4.50416 12.2695 5.05973 13.3089 5.87554 14.1247C6.69134 14.9406 7.73074 15.4961 8.8623 15.7212C9.99385 15.9463 11.1667 15.8308 12.2326 15.3893C13.2985 14.9477 14.2096 14.2001 14.8506 13.2408C15.4915 12.2815 15.8337 11.1537 15.8337 9.99996V9.96663C15.9937 9.86663 16.1437 9.74913 16.2795 9.61246L18.0512 7.84163C18.2353 8.52996 18.3337 9.25329 18.3337 9.99996C18.3337 14.6025 14.6028 18.3333 10.0003 18.3333C5.39783 18.3333 1.66699 14.6025 1.66699 9.99996C1.66699 5.39746 5.39783 1.66663 10.0003 1.66663ZM9.65533 5.84746C9.65533 6.55663 9.62033 7.27579 9.65866 7.98413L9.20866 8.43413C9.05386 8.58892 8.93107 8.77269 8.8473 8.97494C8.76352 9.17719 8.7204 9.39396 8.7204 9.61288C8.7204 9.83179 8.76352 10.0486 8.8473 10.2508C8.93107 10.4531 9.05386 10.6368 9.20866 10.7916C9.36345 10.9464 9.54722 11.0692 9.74947 11.153C9.95172 11.2368 10.1685 11.2799 10.3874 11.2799C10.6063 11.2799 10.8231 11.2368 11.0253 11.153C11.2276 11.0692 11.4114 10.9464 11.5662 10.7916L12.0162 10.3416C12.7245 10.38 13.4428 10.345 14.1528 10.345C14.087 11.1369 13.7961 11.8935 13.3143 12.5256C12.8326 13.1576 12.1802 13.6387 11.434 13.9121C10.6879 14.1855 9.87909 14.2398 9.10306 14.0687C8.32703 13.8975 7.61613 13.508 7.0542 12.9461C6.49228 12.3842 6.10276 11.6733 5.9316 10.8972C5.76044 10.1212 5.81478 9.31241 6.08819 8.56624C6.36161 7.82007 6.8427 7.16766 7.47473 6.68594C8.10677 6.20422 8.86338 5.91329 9.65533 5.84746ZM15.4203 1.77246C15.5724 1.83553 15.7024 1.94224 15.794 2.07913C15.8855 2.21603 15.9344 2.37696 15.9345 2.54163V4.06663H17.4587C17.6235 4.06666 17.7845 4.11555 17.9215 4.20712C18.0585 4.29869 18.1653 4.42883 18.2284 4.58108C18.2914 4.73333 18.308 4.90086 18.2758 5.06249C18.2437 5.22411 18.1643 5.37258 18.0478 5.48913L15.1003 8.43329C14.9441 8.58958 14.7322 8.67741 14.5112 8.67746H12.5003L10.9762 10.2016C10.8198 10.3579 10.6078 10.4456 10.3867 10.4455C10.1656 10.4455 9.95367 10.3576 9.79741 10.2012C9.64115 10.0448 9.55341 9.83281 9.55349 9.61175C9.55357 9.39069 9.64146 9.17872 9.79782 9.02246L11.322 7.49996V5.48829C11.3219 5.37873 11.3434 5.27022 11.3853 5.16898C11.4272 5.06774 11.4887 4.97576 11.5662 4.89829L14.512 1.95246C14.6285 1.83585 14.777 1.75642 14.9387 1.72424C15.1004 1.69205 15.268 1.70854 15.4203 1.77163V1.77246Z" fill="white"/>
</g>
</g>
<defs>
<clipPath id="clip0_863_224">
<rect width="20" height="20" fill="white"/>
</clipPath>
</defs>
</svg>
