<svg width="36" height="30" viewBox="0 0 36 30" fill="none" xmlns="http://www.w3.org/2000/svg">
<path d="M35.334 4.24946C34.058 4.81613 32.6874 5.19746 31.2487 5.36946C32.718 4.48946 33.8447 3.09613 34.3754 1.4348C33.002 2.24946 31.4793 2.84146 29.858 3.16146C28.5607 1.77879 26.7127 0.914795 24.6673 0.914795C20.7393 0.914795 17.5554 4.10013 17.5554 8.0268C17.5554 8.58413 17.6194 9.12813 17.7393 9.6468C11.8287 9.35079 6.58868 6.5188 3.07935 2.21479C2.46868 3.26546 2.11802 4.48679 2.11802 5.79213C2.11802 8.2588 3.37268 10.4361 5.28068 11.7108C4.11535 11.6735 3.01802 11.3535 2.05935 10.8215C2.05935 10.8521 2.05935 10.8801 2.05935 10.9108C2.05935 14.3575 4.51002 17.2321 7.76468 17.8841C7.16868 18.0468 6.53935 18.1335 5.89002 18.1335C5.43268 18.1335 4.98602 18.0881 4.55268 18.0068C5.45802 20.8321 8.08468 22.8895 11.1967 22.9468C8.76335 24.8548 5.69668 25.9921 2.36335 25.9921C1.79002 25.9921 1.22335 25.9588 0.666016 25.8921C3.81402 27.9095 7.55135 29.0868 11.5687 29.0868C24.6514 29.0868 31.8033 18.2495 31.8033 8.85079C31.8033 8.54279 31.7967 8.23613 31.7833 7.9308C33.174 6.9268 34.3807 5.6748 35.334 4.24946Z" fill="white"/>
</svg>
