<svg width="16" height="16" viewBox="0 0 16 16" fill="none" xmlns="http://www.w3.org/2000/svg">
<path d="M7.51172 9.5C9.58279 9.5 11.2617 7.48528 11.2617 5C11.2617 2.51472 9.58279 0.5 7.51172 0.5C5.44065 0.5 3.76172 2.51472 3.76172 5C3.76172 7.48528 5.44065 9.5 7.51172 9.5Z" fill="white"/>
<path d="M14.8619 13.325C14.1869 11.975 12.9119 10.85 11.2619 10.175C10.8119 10.025 10.2869 10.025 9.91188 10.25C9.16188 10.7 8.41188 10.925 7.51188 10.925C6.61188 10.925 5.86188 10.7 5.11188 10.25C4.73688 10.1 4.21188 10.025 3.76188 10.25C2.11188 10.925 0.836881 12.05 0.161881 13.4C-0.363119 14.375 0.461881 15.5 1.58688 15.5H13.4369C14.5619 15.5 15.3869 14.375 14.8619 13.325Z" fill="white"/>
</svg>
