<svg xmlns="http://www.w3.org/2000/svg" viewBox="0 0 66 66" id="condominium"><path fill="#a0dfff" d="M6.64 63.53h-.67V25.32h8.15v-1.47H5.24c-.4 0-.73.33-.73.73v39.68c0 .4.33.73.73.73h1.4v-1.46zm54.33-32.44-18.29-5.26v1.53l17.35 4.99v31.16h-.62v1.47h1.36c.4 0 .73-.33.73-.73V31.79c0-.33-.22-.61-.53-.7z"></path><path fill="#d4effc" d="M14.71 19.07h1.79v45.17h-1.79zM40.95 19.07h1.79v45.17h-1.79z"></path><path fill="#364dec" d="M42.74 64.97H14.71c-.4 0-.73-.33-.73-.73V19.06c0-.4.33-.73.73-.73h28.04c.4 0 .73.33.73.73v45.18c-.01.4-.33.73-.74.73zm-27.3-1.46h26.57V19.79H15.44v43.72z"></path><path fill="#d4effc" d="M12.58 14.73h2.46v4.34h-2.46zM42.41 14.73h2.46v4.34h-2.46z"></path><path fill="#364dec" d="M44.87 19.79H12.58c-.4 0-.73-.33-.73-.73v-4.33c0-.4.33-.73.73-.73h32.29c.4 0 .73.33.73.73v4.33c0 .41-.33.73-.73.73zm-31.56-1.46h30.82v-2.87H13.31v2.87z"></path><path fill="#d4effc" d="M28.31 4.77c-4.22.26-7.69 4.45-8.51 9.96h-3.3c1.14-5.56 5.97-9.77 11.81-9.96zm12.64 9.96h-3.3c-.82-5.51-4.29-9.69-8.52-9.96 5.85.19 10.67 4.4 11.82 9.96z"></path><path fill="#364dec" d="M40.95 15.46H16.5c-.22 0-.43-.1-.57-.27a.748.748 0 0 1-.15-.61c1.26-6.12 6.71-10.56 12.94-10.56 6.24 0 11.68 4.44 12.94 10.56a.74.74 0 0 1-.15.61c-.13.17-.34.27-.56.27zM17.43 14h22.58c-1.44-4.98-6.05-8.51-11.29-8.51-5.24 0-9.85 3.53-11.29 8.51z"></path><path fill="#364dec" d="M28.72 5.49c-.4 0-.73-.33-.73-.73V1.73c0-.4.33-.73.73-.73s.73.33.73.73v3.02c.01.41-.32.74-.73.74zM35.71 65H21.74c-.4 0-.73-.33-.73-.73V44.41c0-.4.33-.73.73-.73h13.97c.4 0 .73.33.73.73v19.85c0 .41-.33.74-.73.74zm-13.24-1.47h12.5V45.15h-12.5v18.38z"></path><path fill="#364dec" d="M37.94 45.15H19.51c-.4 0-.73-.33-.73-.73 0-.4.33-.73.73-.73h18.42c.4 0 .73.33.73.73.01.4-.32.73-.72.73z"></path><path fill="#26cd9d" d="M17.3 21.38h4.39v4.83H17.3zM23.55 21.38h4.39v4.83h-4.39zM29.81 21.38h4.39v4.83h-4.39zM36.06 21.38h4.39v4.83h-4.39zM17.3 28.11h4.39v4.83H17.3zM23.55 28.11h4.39v4.83h-4.39zM29.81 28.11h4.39v4.83h-4.39zM36.06 28.11h4.39v4.83h-4.39zM17.3 34.84h4.39v4.83H17.3zM23.55 34.84h4.39v4.83h-4.39zM29.81 34.84h4.39v4.83h-4.39zM36.06 34.84h4.39v4.83h-4.39z"></path><path fill="#364dec" d="M28.72 65c-.4 0-.73-.33-.73-.73V44.41c0-.4.33-.73.73-.73s.73.33.73.73v19.85c.01.41-.32.74-.73.74z"></path><path fill="#364dec" d="M29.79 55.07h-2.13c-.4 0-.73-.33-.73-.73 0-.4.33-.73.73-.73h2.13c.4 0 .73.33.73.73 0 .4-.33.73-.73.73z"></path><path fill="#d4effc" d="M45.38 33.35h5.24v5.45h-5.24zM52.99 33.35h5.24v5.45h-5.24z"></path><g fill="#d4effc"><path d="M45.38 40.83h5.24v5.45h-5.24zM52.99 40.83h5.24v5.45h-5.24z"></path></g><g fill="#d4effc"><path d="M45.38 48.32h5.24v5.45h-5.24zM52.99 48.32h5.24v5.45h-5.24z"></path></g><g fill="#d4effc"><path d="M45.38 55.8h5.24v5.45h-5.24zM52.99 55.8h5.24v5.45h-5.24z"></path></g><path fill="#364dec" d="M64.27 65H1.73c-.4 0-.73-.33-.73-.73s.33-.73.73-.73h62.54c.4 0 .73.33.73.73s-.33.73-.73.73z"></path><path fill="#d4effc" d="M7.5 27.23h4.86v5.05H7.5zM7.5 34.72h4.86v5.05H7.5zM7.5 42.22h4.86v5.05H7.5zM7.5 49.72h4.86v5.05H7.5zM7.5 57.22h4.86v5.05H7.5z"></path></svg>