<svg xmlns="http://www.w3.org/2000/svg" viewBox="0 0 68 68" id="home"><path fill="#f6c358" d="M7 16.98h54v48H7z"></path><path d="M61 66H7a1 1 0 0 1-1-1V17a1 1 0 0 1 1-1h54a1 1 0 0 1 1 1v48a1 1 0 0 1-1 1zM8 64h52V18H8z"></path><path fill="#e56353" d="M61.13 6.98H6.87L3 16.98h62l-3.87-10z"></path><path d="M65 18H3a1 1 0 0 1-.93-1.36l3.87-10A1 1 0 0 1 6.87 6h54.26a1 1 0 0 1 .93.64l3.87 10A1 1 0 0 1 65 18zM4.46 16h59.08l-3.1-8H7.56z"></path><path fill="#72bede" d="M11 22.98h7v8h-7z"></path><path d="M18 32h-7a1 1 0 0 1-1-1v-8a1 1 0 0 1 1-1h7a1 1 0 0 1 1 1v8a1 1 0 0 1-1 1zm-6-2h5v-6h-5z"></path><path fill="#72bede" d="M11 30.98h7v8h-7z"></path><path d="M18 40h-7a1 1 0 0 1-1-1v-8a1 1 0 0 1 1-1h7a1 1 0 0 1 1 1v8a1 1 0 0 1-1 1zm-6-2h5v-6h-5z"></path><path fill="#72bede" d="M11 50.98h7v8h-7z"></path><path d="M18 60h-7a1 1 0 0 1-1-1v-8a1 1 0 0 1 1-1h7a1 1 0 0 1 1 1v8a1 1 0 0 1-1 1zm-6-2h5v-6h-5z"></path><path fill="#72bede" d="M11 42.98h7v8h-7z"></path><path d="M18 52h-7a1 1 0 0 1-1-1v-8a1 1 0 0 1 1-1h7a1 1 0 0 1 1 1v8a1 1 0 0 1-1 1zm-6-2h5v-6h-5z"></path><path fill="#72bede" d="M50 22.98h7v8h-7z"></path><path d="M57 32h-7a1 1 0 0 1-1-1v-8a1 1 0 0 1 1-1h7a1 1 0 0 1 1 1v8a1 1 0 0 1-1 1zm-6-2h5v-6h-5z"></path><path fill="#72bede" d="M50 30.98h7v8h-7z"></path><path d="M57 40h-7a1 1 0 0 1-1-1v-8a1 1 0 0 1 1-1h7a1 1 0 0 1 1 1v8a1 1 0 0 1-1 1zm-6-2h5v-6h-5z"></path><path fill="#72bede" d="M50 50.98h7v8h-7z"></path><path d="M57 60h-7a1 1 0 0 1-1-1v-8a1 1 0 0 1 1-1h7a1 1 0 0 1 1 1v8a1 1 0 0 1-1 1zm-6-2h5v-6h-5z"></path><path fill="#72bede" d="M50 42.98h7v8h-7z"></path><path d="M57 52h-7a1 1 0 0 1-1-1v-8a1 1 0 0 1 1-1h7a1 1 0 0 1 1 1v8a1 1 0 0 1-1 1zm-6-2h5v-6h-5z"></path><path fill="#e1e6e9" d="M34 3L22 23v42h5V51.31A7.21 7.21 0 0 1 33.82 44 7 7 0 0 1 41 51v14h5V23z"></path><path d="M46 66h-5a1 1 0 0 1-1-1V51a6 6 0 0 0-6.16-6A6.21 6.21 0 0 0 28 51.31V65a1 1 0 0 1-1 1h-5a1 1 0 0 1-1-1V23a1 1 0 0 1 .14-.51l12-20a1 1 0 0 1 1.71 0l12 20A1 1 0 0 1 47 23v42a1 1 0 0 1-1 1zm-4-2h3V23.26L34 4.93 23 23.26V64h3V51.31A8.22 8.22 0 0 1 33.79 43a7.85 7.85 0 0 1 5.79 2.27A7.94 7.94 0 0 1 42 51z"></path><path fill="#72bede" d="M26 24.98h16v8H26z"></path><path d="M42 34H26a1 1 0 0 1-1-1v-8a1 1 0 0 1 1-1h16a1 1 0 0 1 1 1v8a1 1 0 0 1-1 1zm-15-2h14v-6H27z"></path></svg>