<svg xmlns="http://www.w3.org/2000/svg" viewBox="0 0 64 64"><g data-name="Duplex 1"><path fill="#92afa7" d="M4.19 30.34h55.63v24.37H4.19z"/><path fill="#58413f" d="M4.19 52.28h55.63v2.43H4.19z"/><path fill="#915145" d="M6.93 32.06h4.55v9.15H6.93z"/><path fill="#8ed3db" fill-rule="evenodd" d="M7.37 38.15h3.68v-3H7.37Zm0 2.62h3.68v-2.29H7.37Zm0-8.27v2.29h3.68V32.5Z"/><path fill="#915145" d="M13.52 32.06h4.55v9.15h-4.55z"/><path fill="#8ed3db" fill-rule="evenodd" d="M14 38.15h3.68v-3H14Zm0 2.62h3.68v-2.29H14Zm0-8.27v2.29h3.68V32.5Z"/><path fill="#915145" d="M45.96 32.06h4.55v9.15h-4.55z"/><path fill="#8ed3db" fill-rule="evenodd" d="M46.4 40.77h3.67v-2.29H46.4Zm0-8.27v2.29h3.67V32.5Zm0 5.65h3.67v-3H46.4Z"/><path fill="#915145" d="M52.55 32.06h4.55v9.15h-4.55z"/><path fill="#8ed3db" fill-rule="evenodd" d="M53 32.5v2.29h3.67V32.5Zm0 8.27h3.67v-2.29H53Zm0-2.62h3.67v-3H53Z"/><path fill="#58413f" fill-rule="evenodd" d="M54.2 20.78H9.8L1 29.51v.98h62v-.98l-8.8-8.73z"/><path fill="#735a57" d="M1 29.51h62v.98H1z"/><path fill="#96b9b1" fill-rule="evenodd" d="M37.47 14.3 32 8.75l-5.47 5.55-5.48 5.56v34.85h21.9V19.86l-5.48-5.56z"/><path fill="#58413f" fill-rule="evenodd" d="M24.55 51.37V41.33h-1.23v10.04h-.47v.91h2.16v-.91h-.46z"/><path fill="#735a57" fill-rule="evenodd" d="M23.32 41.33v10.04h-.47v.91h1.08V41.33h-.61z"/><path fill="#58413f" fill-rule="evenodd" d="M40.85 51.37V41.33h-1.24v10.04h-.46v.91h2.16v-.91h-.46z"/><path fill="#735a57" fill-rule="evenodd" d="M39.61 41.33v10.04h-.46v.91h1.08V41.33h-.62z"/><path fill="#685250" d="M21.05 39.43h21.9v2.16h-21.9zM21.05 52.14h21.9v2.57h-21.9z"/><path fill="#915145" d="M27.17 52.14h9.67v1.28h-9.67z"/><path fill="#9c574f" d="M26.45 53.43h11.1v1.28h-11.1z"/><path fill="#685250" d="M27.17 42.56h9.67v9.58h-9.67z"/><path fill="#aecdcf" fill-rule="evenodd" d="M29.44 44.29A1.69 1.69 0 0 0 27.76 46v3.23a1.69 1.69 0 0 0 3.37 0V46a1.69 1.69 0 0 0-1.69-1.71zm5.03 0A1.69 1.69 0 0 0 32.78 46v3.23a1.69 1.69 0 0 0 3.37 0V46a1.69 1.69 0 0 0-1.68-1.71z"/><path fill="#915145" d="M6.93 42.2h4.55v9.15H6.93z"/><path fill="#8ed3db" fill-rule="evenodd" d="M7.37 50.91h3.68v-2.28H7.37Zm0-8.27v2.29h3.68v-2.29Zm0 5.65h3.68v-3H7.37Z"/><path fill="#915145" d="M13.52 42.2h4.55v9.15h-4.55z"/><path fill="#8ed3db" fill-rule="evenodd" d="M14 50.91h3.68v-2.28H14Zm0-2.62h3.68v-3H14Zm0-5.65v2.29h3.68v-2.29Z"/><path fill="#915145" d="M45.96 42.2h4.55v9.15h-4.55z"/><path fill="#8ed3db" fill-rule="evenodd" d="M46.4 50.91h3.67v-2.28H46.4Zm0-8.27v2.29h3.67v-2.29Zm0 5.65h3.67v-3H46.4Z"/><path fill="#915145" d="M52.55 42.2h4.55v9.15h-4.55z"/><path fill="#8ed3db" fill-rule="evenodd" d="M53 50.91h3.67v-2.28H53Zm0-2.62h3.67v-3H53Zm0-5.65v2.29h3.67v-2.29Z"/><path fill="#735a57" fill-rule="evenodd" d="M32 8.28 20.36 20.09v2.32L32 10.61l11.64 11.8v-2.32L32 8.28z"/><path fill="#915145" d="M1.63 54.59h60.74v1.13H1.63z"/><path fill="#58413f" fill-rule="evenodd" d="M43.03 34.22H20.97l-4.37 5.5h30.8l-4.37-5.5z"/><path fill="#915145" d="M27.45 20.02h8.32v9.11h-8.32z"/><path fill="#8ed3db" d="M28.05 24.87h3.35v3.75h-3.35zM31.81 20.54h3.35v3.75h-3.35zM28.05 20.54h3.35v3.75h-3.35zM31.81 24.87h3.35v3.75h-3.35z"/><circle cx="31.55" cy="47.68" r=".18" fill="#fff"/><circle cx="32.37" cy="47.68" r=".18" fill="#fff"/><path fill="#58413f" d="M31.89 42.56h.06v9.58h-.06z"/></g></svg>