<svg xmlns="http://www.w3.org/2000/svg" enable-background="new 0 0 64 64" viewBox="0 0 64 64"><path fill="#A00028" d="M5 46c.55 0 1 .45 1 1v-1c0-.55.45-1 1-1s1 .45 1 1v1c0-.55.45-1 1-1s1 .45 1 1v3H4v-3C4 46.45 4.45 46 5 46zM59 46c-.55 0-1 .45-1 1v-1c0-.55-.45-1-1-1s-1 .45-1 1v1c0-.55-.45-1-1-1s-1 .45-1 1v3h6v-3C60 46.45 59.55 46 59 46z"/><polygon fill="#FAB400" points="56 18.99 56 52 32 52 32 19 44 9.5"/><polygon fill="#FAB400" points="56 18.99 56 52 32 52 32 19 44 9.5"/><path fill="#DC9600" d="M56,18.99v2.9l-12-9.48l-11.07,8.77c-0.27,0.22-0.6,0.32-0.93,0.32V19l12-9.5L56,18.99z"/><polygon fill="#00A0C8" points="32 18.99 32 52 8 52 8 19 20 9.5"/><polygon fill="#00A0C8" points="32 18.99 32 52 8 52 8 19 20 9.5"/><path fill="#DC9600" d="M37 33c-1.105 0-2-.895-2-2v-4c0-1.105.895-2 2-2h4c1.105 0 2 .895 2 2v4c0 1.105-.895 2-2 2H37zM47 33c-1.105 0-2-.895-2-2v-4c0-1.105.895-2 2-2h4c1.105 0 2 .895 2 2v4c0 1.105-.895 2-2 2H47z"/><path fill="#0082AA" d="M13 33c-1.105 0-2-.895-2-2v-4c0-1.105.895-2 2-2h4c1.105 0 2 .895 2 2v4c0 1.105-.895 2-2 2H13zM23 33c-1.105 0-2-.895-2-2v-4c0-1.105.895-2 2-2h4c1.105 0 2 .895 2 2v4c0 1.105-.895 2-2 2H23zM32 18.99v2.51c-.36 0-.72-.13-1-.39l-11-8.7-12 9.5V19l12-9.5L32 18.99z"/><path fill="#0A5078" d="M59.407,19.771L44.931,8.323c-0.546-0.431-1.316-0.431-1.862,0l-11.063,8.758L20.931,8.323
			c-0.546-0.431-1.316-0.431-1.862,0L4.579,19.795C3.93,20.31,3.82,21.253,4.334,21.902c0.516,0.651,1.46,0.757,2.107,0.245
			L20,11.413l10.997,8.697c0.534,0.483,1.352,0.527,1.934,0.066L44,11.413l13.545,10.712c0.65,0.513,1.593,0.403,2.107-0.246
			C60.167,21.229,60.056,20.286,59.407,19.771z"/><rect width="56" height="4" x="4" y="52" fill="#0A5078"/><path fill="#F0F0F0" d="M37.5,52V40c0-1.105,0.895-2,2-2h9c1.105,0,2,0.895,2,2v12H37.5z"/><rect width="9" height="12" x="39.5" y="40" fill="#C80A50"/><path fill="#F0F0F0" d="M13.5,52V40c0-1.105,0.895-2,2-2h9c1.105,0,2,0.895,2,2v12H13.5z"/><rect width="9" height="12" x="15.5" y="40" fill="#C80A50"/><path fill="#00A0C8" d="M37,32c-1.105,0-2-0.895-2-2v-4c0-1.105,0.895-2,2-2h4c1.105,0,2,0.895,2,2v4c0,1.105-0.895,2-2,2H37z"/><rect width="4" height="4" x="37" y="26" fill="#F0F0F0"/><rect width="4" height="1" x="37" y="26" fill="#D2D2D2"/><path fill="#00A0C8" d="M47,32c-1.105,0-2-0.895-2-2v-4c0-1.105,0.895-2,2-2h4c1.105,0,2,0.895,2,2v4c0,1.105-0.895,2-2,2H47z"/><rect width="4" height="4" x="47" y="26" fill="#F0F0F0"/><rect width="4" height="1" x="47" y="26" fill="#D2D2D2"/><path fill="#FAB400" d="M13,32c-1.105,0-2-0.895-2-2v-4c0-1.105,0.895-2,2-2h4c1.105,0,2,0.895,2,2v4c0,1.105-0.895,2-2,2H13z"/><rect width="4" height="4" x="13" y="26" fill="#F0F0F0"/><rect width="4" height="1" x="13" y="26" fill="#D2D2D2"/><path fill="#FAB400" d="M23,32c-1.105,0-2-0.895-2-2v-4c0-1.105,0.895-2,2-2h4c1.105,0,2,0.895,2,2v4c0,1.105-0.895,2-2,2H23z"/><rect width="4" height="4" x="23" y="26" fill="#F0F0F0"/><rect width="4" height="1" x="23" y="26" fill="#D2D2D2"/><path fill="#C80A50" d="M60 47v5h-7v-3c0-.55.45-1 1-1s1 .45 1 1v-1c0-.55.45-1 1-1s1 .45 1 1v1c0-.55.45-1 1-1s1 .45 1 1v-1C59 47.45 59.45 47 60 47zM4 47v5h7v-3c0-.55-.45-1-1-1s-1 .45-1 1v-1c0-.55-.45-1-1-1s-1 .45-1 1v1c0-.55-.45-1-1-1s-1 .45-1 1v-1C5 47.45 4.55 47 4 47z"/><path fill="#FAB400" d="M42 47.5c-.276 0-.5-.224-.5-.5v-1c0-.276.224-.5.5-.5s.5.224.5.5v1C42.5 47.276 42.276 47.5 42 47.5zM18 47.5c-.276 0-.5-.224-.5-.5v-1c0-.276.224-.5.5-.5s.5.224.5.5v1C18.5 47.276 18.276 47.5 18 47.5z"/></svg>