<svg width="26" height="25" viewBox="0 0 26 25" fill="none" xmlns="http://www.w3.org/2000/svg">
<path d="M10.9943 14.451C11.5451 14.9749 11.5451 15.8347 10.9943 16.3586C10.4703 16.8826 9.61054 16.8826 9.08661 16.3586C7.82834 15.0985 7.1216 13.3905 7.1216 11.6096C7.1216 9.82884 7.82834 8.12083 9.08661 6.86066L13.8423 2.10496C15.1025 0.846686 16.8105 0.139954 18.5913 0.139954C20.3721 0.139954 22.0801 0.846686 23.3403 2.10496C24.5986 3.36512 25.3053 5.07314 25.3053 6.85395C25.3053 8.63475 24.5986 10.3428 23.3403 11.6029L21.3386 13.6046C21.352 12.503 21.1774 11.4014 20.8012 10.3536L21.4326 9.70871C21.8092 9.33616 22.1082 8.89262 22.3123 8.40376C22.5163 7.91489 22.6214 7.39041 22.6214 6.86066C22.6214 6.33092 22.5163 5.80644 22.3123 5.31757C22.1082 4.8287 21.8092 4.38516 21.4326 4.01262C21.0601 3.636 20.6165 3.33702 20.1277 3.13297C19.6388 2.92892 19.1143 2.82385 18.5846 2.82385C18.0548 2.82385 17.5304 2.92892 17.0415 3.13297C16.5526 3.33702 16.1091 3.636 15.7365 4.01262L10.9943 8.75488C10.6177 9.12743 10.3187 9.57097 10.1146 10.0598C9.91057 10.5487 9.8055 11.0732 9.8055 11.6029C9.8055 12.1327 9.91057 12.6572 10.1146 13.146C10.3187 13.6349 10.6177 14.0784 10.9943 14.451ZM14.7827 8.75488C15.3066 8.23095 16.1664 8.23095 16.6904 8.75488C17.9486 10.015 18.6554 11.7231 18.6554 13.5039C18.6554 15.2847 17.9486 16.9927 16.6904 18.2529L11.9347 23.0086C10.6745 24.2668 8.96648 24.9736 7.18567 24.9736C5.40487 24.9736 3.69685 24.2668 2.43669 23.0086C1.17841 21.7484 0.47168 20.0404 0.47168 18.2596C0.47168 16.4788 1.17841 14.7708 2.43669 13.5106L4.43838 11.5089C4.42495 12.6105 4.59959 13.7121 4.97575 14.7734L4.34434 15.4048C3.96773 15.7774 3.66875 16.2209 3.4647 16.7098C3.26065 17.1986 3.15558 17.7231 3.15558 18.2529C3.15558 18.7826 3.26065 19.3071 3.4647 19.7959C3.66875 20.2848 3.96773 20.7284 4.34434 21.1009C4.71689 21.4775 5.16043 21.7765 5.6493 21.9805C6.13816 22.1846 6.66265 22.2897 7.19239 22.2897C7.72213 22.2897 8.24661 22.1846 8.73548 21.9805C9.22435 21.7765 9.66789 21.4775 10.0404 21.1009L14.7827 16.3586C15.1593 15.9861 15.4583 15.5425 15.6624 15.0537C15.8664 14.5648 15.9715 14.0403 15.9715 13.5106C15.9715 12.9808 15.8664 12.4564 15.6624 11.9675C15.4583 11.4786 15.1593 11.0351 14.7827 10.6625C14.6522 10.5403 14.5482 10.3925 14.4771 10.2285C14.406 10.0644 14.3693 9.88752 14.3693 9.70871C14.3693 9.52991 14.406 9.353 14.4771 9.18894C14.5482 9.02488 14.6522 8.87715 14.7827 8.75488Z" fill="#FD6602"/>
</svg>
