<svg width="168" height="112" viewBox="0 0 168 112" fill="none" xmlns="http://www.w3.org/2000/svg">
<path d="M135.45 42.28C133.099 30.364 126.683 19.634 117.299 11.9227C107.916 4.21143 96.1458 -0.0027457 84 1.34216e-06C63.77 1.34216e-06 46.2 11.48 37.45 28.28C27.1616 29.3918 17.647 34.2665 10.7344 41.9673C3.8218 49.668 -0.00120191 59.6517 2.83449e-07 70C2.83449e-07 93.17 18.83 112 42 112H133C152.32 112 168 96.32 168 77C168 58.52 153.65 43.54 135.45 42.28ZM133 98H42C26.53 98 14 85.47 14 70C14 55.65 24.71 43.68 38.92 42.21L46.41 41.44L49.91 34.79C53.1292 28.5234 58.0151 23.2667 64.0299 19.5986C70.0446 15.9304 76.955 13.9931 84 14C102.34 14 118.16 27.02 121.73 45.01L123.83 55.51L134.54 56.28C139.802 56.6339 144.735 58.9679 148.346 62.8123C151.956 66.6567 153.977 71.726 154 77C154 88.55 144.55 98 133 98ZM70 71.26L55.37 56.63L45.5 66.5L70 91L112.07 48.93L102.2 39.06L70 71.26Z" fill="#FD6602"/>
</svg>
