<svg width="28" height="28" viewBox="0 0 28 28" fill="none" xmlns="http://www.w3.org/2000/svg">
<path d="M14 6.4165C15.083 6.4165 16.1216 6.84671 16.8874 7.61248C17.6531 8.37826 18.0833 9.41687 18.0833 10.4998C18.0833 11.5828 17.6531 12.6214 16.8874 13.3872C16.1216 14.153 15.083 14.5832 14 14.5832C12.917 14.5832 11.8784 14.153 11.1126 13.3872C10.3469 12.6214 9.91667 11.5828 9.91667 10.4998C9.91667 9.41687 10.3469 8.37826 11.1126 7.61248C11.8784 6.84671 12.917 6.4165 14 6.4165ZM5.83333 9.33317C6.48667 9.33317 7.09333 9.50817 7.61833 9.82317C7.44333 11.4915 7.93333 13.1482 8.93667 14.4432C8.35333 15.5632 7.18667 16.3332 5.83333 16.3332C4.90508 16.3332 4.01484 15.9644 3.35846 15.308C2.70208 14.6517 2.33333 13.7614 2.33333 12.8332C2.33333 11.9049 2.70208 11.0147 3.35846 10.3583C4.01484 9.70192 4.90508 9.33317 5.83333 9.33317ZM22.1667 9.33317C23.0949 9.33317 23.9852 9.70192 24.6415 10.3583C25.2979 11.0147 25.6667 11.9049 25.6667 12.8332C25.6667 13.7614 25.2979 14.6517 24.6415 15.308C23.9852 15.9644 23.0949 16.3332 22.1667 16.3332C20.8133 16.3332 19.6467 15.5632 19.0633 14.4432C20.0805 13.13 20.5527 11.4754 20.3817 9.82317C20.9067 9.50817 21.5133 9.33317 22.1667 9.33317ZM6.41667 21.2915C6.41667 18.8765 9.81167 16.9165 14 16.9165C18.1883 16.9165 21.5833 18.8765 21.5833 21.2915V23.3332H6.41667V21.2915ZM0 23.3332V21.5832C0 19.9615 2.205 18.5965 5.19167 18.1998C4.50333 18.9932 4.08333 20.0898 4.08333 21.2915V23.3332H0ZM28 23.3332H23.9167V21.2915C23.9167 20.0898 23.4967 18.9932 22.8083 18.1998C25.795 18.5965 28 19.9615 28 21.5832V23.3332Z" fill="white"/>
</svg>
