<svg width="40" height="40" viewBox="0 0 40 40" fill="none" xmlns="http://www.w3.org/2000/svg">
<g clip-path="url(#clip0_333_505)">
<path d="M0.858162 19.7606C0.857225 23.1213 1.742 26.4029 3.42439 29.2953L0.697266 39.1778L10.8872 36.526C13.7056 38.0488 16.8634 38.8467 20.0723 38.8469H20.0808C30.6742 38.8469 39.2975 30.2914 39.302 19.7756C39.304 14.68 37.3064 9.88832 33.677 6.28336C30.0483 2.67871 25.2221 0.692511 20.08 0.690186C9.48535 0.690186 0.862692 9.24522 0.858318 19.7606" fill="green" fill-opacity="0.9"/>
<path d="M0.172028 19.7544C0.170934 23.2361 1.08742 26.635 2.82979 29.631L0.00488281 39.8678L10.5602 37.1209C13.4685 38.6947 16.743 39.5245 20.0749 39.5257H20.0835C31.057 39.5257 39.99 30.6625 39.9947 19.7702C39.9966 14.4915 37.9271 9.5276 34.1681 5.79349C30.4086 2.05984 25.4098 0.00217054 20.0835 0C9.1082 0 0.176558 8.86202 0.172184 19.7544H0.172028ZM6.45793 29.115L6.06381 28.4941C4.40705 25.8795 3.53258 22.8581 3.53383 19.7557C3.53742 10.7022 10.9612 3.33643 20.0898 3.33643C24.5105 3.33829 28.6651 5.04868 31.7899 8.15194C34.9146 11.2555 36.634 15.3811 36.6329 19.769C36.6289 28.8225 29.205 36.1891 20.0835 36.1891H20.077C17.1069 36.1876 14.1941 35.396 11.6538 33.9L11.0493 33.5442L4.78554 35.1741L6.45793 29.1149V29.115Z" fill="url(#paint0_linear_333_505)"/>
<path d="M15.1067 11.4958C14.734 10.6736 14.3417 10.657 13.9873 10.6426C13.6971 10.6302 13.3653 10.6311 13.0338 10.6311C12.702 10.6311 12.1629 10.755 11.7073 11.2488C11.2511 11.7431 9.96582 12.9375 9.96582 15.3668C9.96582 17.7962 11.7486 20.144 11.9972 20.4738C12.246 20.8029 15.439 25.9477 20.4958 27.9269C24.6985 29.5717 25.5537 29.2446 26.4659 29.1621C27.3781 29.08 29.4095 27.968 29.8239 26.815C30.2386 25.6621 30.2386 24.6739 30.1143 24.4674C29.99 24.2617 29.6582 24.1381 29.1606 23.8913C28.6629 23.6443 26.217 22.4497 25.761 22.2849C25.3049 22.1203 24.9733 22.0381 24.6415 22.5325C24.3097 23.0262 23.357 24.1381 23.0666 24.4674C22.7765 24.7975 22.4861 24.8386 21.9887 24.5916C21.4909 24.3438 19.8886 23.8231 17.9877 22.141C16.5087 20.8322 15.5102 19.2159 15.22 18.7215C14.9297 18.2279 15.1889 17.9603 15.4383 17.7142C15.6619 17.493 15.936 17.1376 16.185 16.8494C16.4331 16.561 16.5159 16.3553 16.6818 16.026C16.8478 15.6964 16.7647 15.408 16.6405 15.161C16.5159 14.9141 15.5491 12.4722 15.1067 11.4959" fill="white"/>
</g>
<defs>
<linearGradient id="paint0_linear_333_505" x1="19.9998" y1="39.8678" x2="19.9998" y2="0" gradientUnits="userSpaceOnUse">
<stop stop-color="#F9F9F9"/>
<stop offset="1" stop-color="white"/>
</linearGradient>
<clipPath id="clip0_333_505">
<rect width="40" height="40" fill="white"/>
</clipPath>
</defs>
</svg>
